<?xml version="1.0" encoding="utf-8"?>
<!-- Generator: Adobe Illustrator 16.0.0, SVG Export Plug-In . SVG Version: 6.00 Build 0)  -->
<!DOCTYPE svg PUBLIC "-//W3C//DTD SVG 1.1//EN" "http://www.w3.org/Graphics/SVG/1.1/DTD/svg11.dtd">
<svg version="1.1" id="Capa_1" xmlns="http://www.w3.org/2000/svg" xmlns:xlink="http://www.w3.org/1999/xlink" x="0px" y="0px"
	 width="456.814px" height="456.814px" viewBox="0 0 456.814 456.814" enable-background="new 0 0 456.814 456.814"
	 xml:space="preserve">
<g>
	<g>
		<path fill="#D0D0D0" d="M15.704,204.135C5.235,216.127,0,230.306,0,246.677c-0.001,14.846,5.433,27.691,16.262,38.547
			c10.848,10.854,23.691,16.277,38.539,16.277h79.082c-0.761,2.664-1.522,4.947-2.282,6.852c-0.752,1.902-1.813,3.998-3.138,6.283
			c-1.329,2.283-2.283,3.998-2.854,5.139c-3.424,6.469-6.046,11.801-7.854,15.984c-1.811,4.191-3.608,9.9-5.423,17.133
			c-1.81,7.229-2.711,14.465-2.711,21.697c0,4.566,0.056,8.281,0.147,11.135c0.088,2.855,0.573,7.139,1.422,12.85
			c0.863,5.709,2.006,10.467,3.43,14.273c1.432,3.805,3.718,8.092,6.852,12.846c3.142,4.764,6.946,8.613,11.424,11.566
			c4.476,2.949,10.184,5.424,17.131,7.42c6.954,2,14.8,2.998,23.562,2.998c4.947,0,9.228-1.809,12.848-5.424
			c3.807-3.809,7.048-8.566,9.709-14.273c2.666-5.711,4.521-10.66,5.57-14.85c1.049-4.188,2.238-9.994,3.565-17.414
			c1.719-8,2.999-13.752,3.86-17.273c0.855-3.521,2.525-8.137,4.997-13.846c2.477-5.713,5.424-10.277,8.851-13.705
			c6.281-6.279,15.893-17.701,28.838-34.26c9.328-12.18,18.94-23.695,28.838-34.545c9.897-10.852,17.13-16.465,21.697-16.848
			c4.755-0.379,8.848-2.33,12.275-5.854c3.426-3.521,5.139-7.66,5.139-12.418l0.001-183.011c0-4.947-1.808-9.182-5.424-12.701
			c-3.615-3.526-7.898-5.382-12.848-5.571c-6.66-0.191-21.697-4.375-45.11-12.566c-14.654-4.94-26.12-8.708-34.401-11.271
			c-8.277-2.566-19.849-5.328-34.684-8.282c-14.849-2.949-28.551-4.428-41.11-4.428h-4.853h-21.7h-10.276
			c-25.319,0.38-44.061,7.806-56.247,22.267C42.088,44.54,37.429,61.767,39.135,83.083c-7.423,7.043-12.565,15.984-15.416,26.836
			c-3.23,11.604-3.231,22.741,0,33.398c-8.752,11.61-12.848,24.649-12.272,39.115C11.419,188.527,12.843,195.757,15.704,204.135z"/>
		<path fill="#D0D0D0" d="M356.313,264.948h82.226c4.95,0,9.234-1.809,12.851-5.426c3.615-3.615,5.425-7.896,5.425-12.846V63.944
			c-0.001-4.94-1.809-9.226-5.426-12.847c-3.619-3.612-7.903-5.421-12.852-5.421h-82.224c-4.948,0-9.228,1.81-12.847,5.421
			c-3.615,3.62-5.423,7.903-5.424,12.847l0.001,182.733c-0.001,4.947,1.808,9.229,5.423,12.846
			C347.085,263.142,351.364,264.948,356.313,264.948z M389.148,87.505c3.616-3.521,7.899-5.282,12.848-5.281
			c5.141,0,9.471,1.76,12.99,5.281c3.521,3.52,5.28,7.85,5.281,12.99c0,4.946-1.759,9.229-5.281,12.845
			c-3.52,3.617-7.851,5.429-12.99,5.429c-4.949,0-9.23-1.812-12.848-5.429c-3.616-3.614-5.426-7.897-5.425-12.846
			C383.724,95.355,385.529,91.027,389.148,87.505z"/>
	</g>
</g>
</svg>
